<svg width="36" height="42" viewBox="0 0 36 42" fill="none" xmlns="http://www.w3.org/2000/svg">
<path d="M28.35 7.095C26.8123 5.33894 25.9648 3.08415 25.965 0.75H19.0125V28.65C18.96 30.1602 18.3229 31.5909 17.2357 32.6404C16.1484 33.6898 14.6961 34.2759 13.185 34.275C9.98999 34.275 7.33499 31.665 7.33499 28.425C7.33499 24.555 11.07 21.6525 14.9175 22.845V15.735C7.15499 14.7 0.359985 20.73 0.359985 28.425C0.359985 35.9175 6.56999 41.25 13.1625 41.25C20.2275 41.25 25.965 35.5125 25.965 28.425V14.2725C28.7842 16.2972 32.1691 17.3835 35.64 17.3775V10.425C35.64 10.425 31.41 10.6275 28.35 7.095Z" fill="white"/>
</svg>
